PathFileType	4	(X/Y/Z)	/home/utkubuntu/opensim/opensim_mycode/release_code/bioimitation/imitation_envs/data/02905/02905_PRE/experimental_data/static.trc
DataRate	CameraRate	NumFrames	NumMarkers	Units	OrigDataRate	OrigDataStartFrame	OrigNumFrames
100.000000	100.000000	4	53	mm	100.000000	375	1000
Frame#	Time	C7			CLAV			LANK			LASI			LBHD			LELB			LFHD			LFIN			LFMH			LHEE			LKNE			LKNI			LMED			LMET			LMIF			LPSI			LSHO			LTAD			LTHAP			LTHI			LTIAD			LTIB			LTOE			LTTU			LWRA			LWRB			RANK			RASI			RBAK			RBHD			RELB			RFHD			RFIN			RFMH			RHEE			RKNE			RKNI			RMED			RMET			RMIF			RPSI			RSHO			RTAD			RTHAP			RTHI			RTIAD			RTIB			RTOE			RTTU			RWRA			RWRB			STRN			T10			
		X1	Y1	Z1	X2	Y2	Z2	X3	Y3	Z3	X4	Y4	Z4	X5	Y5	Z5	X6	Y6	Z6	X7	Y7	Z7	X8	Y8	Z8	X9	Y9	Z9	X10	Y10	Z10	X11	Y11	Z11	X12	Y12	Z12	X13	Y13	Z13	X14	Y14	Z14	X15	Y15	Z15	X16	Y16	Z16	X17	Y17	Z17	X18	Y18	Z18	X19	Y19	Z19	X20	Y20	Z20	X21	Y21	Z21	X22	Y22	Z22	X23	Y23	Z23	X24	Y24	Z24	X25	Y25	Z25	X26	Y26	Z26	X27	Y27	Z27	X28	Y28	Z28	X29	Y29	Z29	X30	Y30	Z30	X31	Y31	Z31	X32	Y32	Z32	X33	Y33	Z33	X34	Y34	Z34	X35	Y35	Z35	X36	Y36	Z36	X37	Y37	Z37	X38	Y38	Z38	X39	Y39	Z39	X40	Y40	Z40	X41	Y41	Z41	X42	Y42	Z42	X43	Y43	Z43	X44	Y44	Z44	X45	Y45	Z45	X46	Y46	Z46	X47	Y47	Z47	X48	Y48	Z48	X49	Y49	Z49	X50	Y50	Z50	X51	Y51	Z51	X52	Y52	Z52	X53	Y53	Z53	

376	3.75	775.656982421875	1444.911010742188	-283.1279907226559	879.9600219726562	1350.27294921875	-264.700988769531	723.698974609375	77.99900054931649	-362.3559875488281	897.2020263671875	944.9520263671876	-358.5899963378904	807.2570190429688	1536.60595703125	-355.4630126953122	727.5880126953125	1100.041015625	-556.2600097656248	930.7160034179688	1634.465942382812	-322.6359863281247	810.489990234375	854.7990112304689	-682.3070068359373	862.81298828125	36.3279991149903	-290.4230041503906	672.1589965820312	39.33800125122077	-333.9630126953125	780.2269897460938	469.6489868164063	-383.0190124511718	776.323974609375	458.2200012207032	-266.8810119628905	729.427978515625	88.2900009155274	-282.1719970703125	833.760986328125	27.48299980163583	-384.1929931640625	803.7969970703125	73.7190017700196	-329.3489990234375	730.5869750976562	960.3569946289064	-302.7499999999998	810.9390258789062	1384.901000976562	-436.690002441406	855.9920043945312	527.8850097656251	-314.3919982910155	902.364990234375	692.8410034179689	-318.2799987792967	805.8989868164062	565.9520263671876	-429.5979919433593	776.4000244140625	208.3789978027345	-322.9240112304687	742.3699951171875	299.4320068359376	-434.7850036621093	858.9019775390625	40.76100158691413	-335.9469909667969	810.1690063476562	384.2990112304688	-324.5140075683593	837.2449951171875	890.6339721679689	-635.5289916992185	772.4010009765625	891.4000244140626	-662.4210205078123	712.9910278320312	74.99299621582034	-101.4329986572265	874.3480224609375	958.10302734375	-114.0319976806638	697.531005859375	1343.219970703125	-158.9600067138669	793.031005859375	1524.963012695312	-196.1029968261715	677.676025390625	1109.871948242188	-13.80399990081762	913.0679931640625	1620.610961914062	-198.8930053710934	736.2150268554688	864.0770263671875	165.3240051269533	854.448974609375	36.17800140380863	-159.2720031738281	653.6060180664062	35.10699844360354	-131.2590026855469	794.3389892578125	475.3330078125	-93.26100158691396	791.9450073242188	464.4710083007813	-212.8600006103514	715.552978515625	85.02700042724614	-184.5890045166015	813.9000244140625	26.68099975585939	-65.91799926757812	802.1439819335938	67.43299865722659	-130.2899932861328	721.2020263671875	966.9650268554688	-200.9250030517576	779.10498046875	1396.035034179688	-100.601997375488	870.9829711914062	554.135009765625	-139.1060028076171	904.7169799804688	720.4199829101562	-119.731002807617	803.2899780273438	589.1719970703125	-40.220001220703	786.6859741210938	256.8190002441407	-143.156997680664	736.8350219726562	297.9089965820312	-34.86800003051751	846.8489990234375	39.50000000000003	-113.9229965209961	826.4630126953125	395.2659912109376	-144.3390045166015	767.8359985351562	904.22802734375	114.3170013427736	697.114013671875	900.3629760742188	126.2539978027346	897.551025390625	1191.526977539062	-254.3820037841794	688.9039916992188	1149.370971679688	-270.6679992675779	
377	3.76	775.6959838867188	1444.906005859375	-283.1140136718747	879.9730224609375	1350.255981445312	-264.6870117187497	723.6950073242188	77.9970016479493	-362.364990234375	897.198974609375	944.9470214843751	-358.5639953613279	807.2979736328125	1536.60498046875	-355.4630126953122	727.5640258789062	1100.0400390625	-556.2650146484373	930.7880249023438	1634.442016601562	-322.6380004882809	810.4600219726562	854.8060302734376	-682.335998535156	862.8070068359375	36.3279991149903	-290.4249877929688	672.1580200195312	39.3289985656739	-333.9809875488281	780.2659912109375	469.6480102539063	-382.9979858398436	776.2969970703125	458.2149963378907	-266.8749999999999	729.4210205078125	88.28600311279303	-282.1820068359375	833.7639770507812	27.48200035095223	-384.1960144042969	803.7869873046875	73.71299743652351	-329.3519897460938	730.6170043945312	960.3499755859376	-302.7070007324216	810.9180297851562	1384.880004882812	-436.6640014648435	855.968017578125	527.8750000000001	-314.3779907226561	902.3460083007812	692.8319702148439	-318.251007080078	805.89501953125	565.9429931640626	-429.5969848632811	776.3800048828125	208.3760070800782	-322.9240112304687	742.3729858398438	299.4320068359376	-434.7900085449218	858.8939819335938	40.76100158691413	-335.9490051269531	810.1519775390625	384.2959899902344	-324.5060119628905	837.2150268554688	890.6389770507814	-635.5520019531248	772.3679809570312	891.4050292968751	-662.450012207031	712.989013671875	74.99199676513675	-101.4339981079101	874.3909912109375	958.1019897460938	-113.9990005493162	697.56298828125	1343.223022460938	-158.9210052490232	793.0689697265625	1524.970947265625	-196.1100006103512	677.718994140625	1109.869995117188	-13.75899982452368	913.1240234375	1620.588989257812	-198.8930053710934	736.280029296875	864.0800170898438	165.3679962158205	854.4459838867188	36.17699813842777	-159.2720031738281	653.614013671875	35.11199951171878	-131.2579956054688	794.3319702148438	475.3309936523438	-93.24199676513662	791.93701171875	464.4769897460938	-212.8419952392577	715.5540161132812	85.0329971313477	-184.5859985351562	813.906982421875	26.6840000152588	-65.91999816894531	802.1430053710938	67.431999206543	-130.2899932861328	721.2349853515625	966.9660034179688	-200.8710021972654	779.1580200195312	1396.037963867188	-100.5910034179684	870.968994140625	554.1279907226562	-139.0970001220702	904.7340087890625	720.4110107421875	-119.7099990844725	803.3040161132812	589.1610107421875	-40.19699859619128	786.6810302734375	256.8229980468751	-143.1479949951171	736.8369750976562	297.906005859375	-34.85499954223626	846.8499755859375	39.49700164794925	-113.9240036010742	826.4609985351562	395.2699890136719	-144.3220062255859	767.8900146484375	904.22802734375	114.3580017089846	697.1859741210938	900.3820190429688	126.3069992065432	897.5339965820312	1191.5009765625	-254.3699951171872	688.9530029296875	1149.364990234375	-270.6130065917966	
378	3.77	775.7310180664062	1444.902954101562	-283.1000061035153	879.9840087890625	1350.239990234375	-264.6749877929685	723.6890258789062	77.99400329589852	-362.3689880371094	897.2050170898438	944.9439697265626	-358.5390014648435	807.343994140625	1536.607055664062	-355.4700012207028	727.5419921875	1100.030029296875	-556.273986816406	930.85302734375	1634.423950195312	-322.6470031738278	810.4249877929688	854.8109741210939	-682.3699951171873	862.802001953125	36.3279991149903	-290.4259948730469	672.156005859375	39.32300186157234	-333.9970092773438	780.3179931640625	469.6449890136719	-382.9639892578124	776.2760009765625	458.2120056152344	-266.8630065917968	729.4169921875	88.27999877929693	-282.18701171875	833.7680053710938	27.48500061035165	-384.1969909667969	803.7830200195312	73.71099853515632	-329.35400390625	730.64697265625	960.3410034179689	-302.6629943847654	810.8880004882812	1384.857055664062	-436.638000488281	855.9439697265625	527.8619995117189	-314.3569946289061	902.3300170898438	692.8220214843751	-318.2239990234373	805.89501953125	565.9340209960939	-429.5859985351561	776.3629760742188	208.3730010986329	-322.9190063476562	742.3740234375	299.4330139160157	-434.7879943847656	858.8920288085938	40.76300048828132	-335.9490051269531	810.1380004882812	384.2929992675782	-324.4890136718749	837.1840209960938	890.6389770507814	-635.585021972656	772.3300170898438	891.4039916992189	-662.481018066406	712.989013671875	74.99099731445315	-101.4339981079101	874.4349975585938	958.1019897460938	-113.9670028686521	697.594970703125	1343.22900390625	-158.8760070800778	793.1129760742188	1524.987060546875	-196.11799621582	677.7559814453125	1109.869018554688	-13.72099971771216	913.1790161132812	1620.574951171875	-198.9010009765621	736.3380126953125	864.0819702148438	165.4029998779299	854.4429931640625	36.17699813842777	-159.2749938964844	653.6170043945312	35.11600112915042	-131.2570037841797	794.322021484375	475.3330078125	-93.22299957275381	791.927978515625	464.4859924316407	-212.8260040283202	715.5540161132812	85.03900146484379	-184.5859985351562	813.9130249023438	26.6889991760254	-65.92400360107422	802.1389770507812	67.43000030517581	-130.2899932861328	721.281005859375	966.968994140625	-200.815002441406	779.2059936523438	1396.04296875	-100.5790023803708	870.9500122070312	554.1179809570312	-139.0839996337889	904.7520141601562	720.4000244140625	-119.6890029907225	803.3150024414062	589.1510009765625	-40.17399978637683	786.6719970703125	256.8269958496094	-143.1390075683593	736.8359985351562	297.9070129394531	-34.84199905395501	846.8499755859375	39.49599838256839	-113.9290008544922	826.4530029296875	395.2739868164063	-144.3049926757812	767.9400024414062	904.2260131835938	114.388999938965	697.2559814453125	900.39501953125	126.3519973754885	897.5180053710938	1191.47802734375	-254.3549957275388	689.010986328125	1149.359985351562	-270.5559997558591	
379	3.78	775.7529907226562	1444.905029296875	-283.0820007324215	879.9929809570312	1350.22802734375	-264.6629943847653	723.6840209960938	77.9919967651368	-362.3670043945312	897.218994140625	944.9420166015626	-358.5140075683591	807.3880004882812	1536.614013671875	-355.4779968261715	727.5180053710938	1100.012939453125	-556.2800292968748	930.9110107421875	1634.411010742188	-322.6619873046872	810.385009765625	854.8179931640626	-682.4060058593748	862.7990112304688	36.3269996643067	-290.4249877929688	672.1510009765625	39.32199859619148	-334.0060119628906	780.3709716796875	469.6409912109376	-382.917999267578	776.2630004882812	458.2090148925782	-266.8439941406249	729.4149780273438	88.27300262451178	-282.1839904785156	833.77001953125	27.48999977111825	-384.1969909667969	803.7880249023438	73.71299743652351	-329.35400390625	730.6749877929688	960.3319702148439	-302.6180114746091	810.8510131835938	1384.8349609375	-436.6080017089841	855.9240112304688	527.8480224609376	-314.3299865722655	902.323974609375	692.8099975585939	-318.1969909667967	805.9010009765625	565.9279785156251	-429.5620117187499	776.3519897460938	208.3710021972657	-322.9089965820312	742.3699951171875	299.4349975585939	-434.7760009765624	858.89697265625	40.7669982910157	-335.9469909667969	810.1290283203125	384.2900085449219	-324.4649963378905	837.1530151367188	890.6389770507814	-635.6229858398435	772.2890014648438	891.3980102539064	-662.513000488281	712.9940185546875	74.99299621582034	-101.4280014038086	874.4840087890625	958.10302734375	-113.9359970092771	697.6190185546875	1343.239013671875	-158.8229980468747	793.1589965820312	1525.012939453125	-196.1239929199215	677.7849731445312	1109.869995117188	-13.68599987030005	913.2340087890625	1620.574951171875	-198.9160003662106	736.3889770507812	864.0830078125	165.4279937744143	854.4420166015625	36.17699813842777	-159.2779998779297	653.614990234375	35.11999893188479	-131.2550048828125	794.3159790039062	475.3380126953125	-93.20200347900381	791.9219970703125	464.4949951171876	-212.8079986572264	715.552978515625	85.04799652099614	-184.5850067138672	813.9190063476562	26.69499969482423	-65.927001953125	802.135009765625	67.43000030517581	-130.2899932861328	721.3289794921875	966.97900390625	-200.7570037841795	779.2470092773438	1396.052978515625	-100.560997009277	870.9400024414062	554.1090087890625	-139.0630035400389	904.7789916992188	720.3889770507812	-119.667999267578	803.3289794921875	589.14599609375	-40.15000152587878	786.6610107421875	256.8309936523438	-143.1280059814453	736.8319702148438	297.9100036621094	-34.82699966430658	846.8499755859375	39.49499893188479	-113.9339981079101	826.4420166015625	395.2780151367188	-144.2899932861327	767.9879760742188	904.2230224609375	114.4100036621096	697.3200073242188	900.405029296875	126.388999938965	897.5040283203125	1191.4599609375	-254.3370056152341	689.0689697265625	1149.359008789062	-270.492004394531	
